<svg width="105" height="122" viewBox="0 0 105 122" fill="none" xmlns="http://www.w3.org/2000/svg">
<path d="M49.1102 5.27881C50.2206 3.41066 51.3583 1.92595 52.5233 0.824687C52.5561 0.793792 52.598 0.774423 52.6427 0.769476C52.6873 0.764529 52.7324 0.774268 52.7711 0.797239C52.9859 0.926995 53.1917 1.1025 53.3883 1.32375C56.0008 4.26073 58.5463 8.29315 57.022 12.2782C56.3304 14.0873 53.6163 17.2189 51.4649 15.9513C47.5338 13.6331 46.8497 9.07917 49.1102 5.27881ZM52.6461 12.4478C52.8137 12.4489 52.9769 12.0938 53.0998 11.4606C53.2228 10.8274 53.2953 9.96784 53.3015 9.07114C53.3077 8.17443 53.2471 7.31398 53.133 6.67908C53.0189 6.04417 52.8606 5.68682 52.6929 5.68563C52.5253 5.68446 52.3621 6.03955 52.2392 6.67279C52.1162 7.30603 52.0437 8.16555 52.0375 9.06225C52.0313 9.95896 52.0919 10.8194 52.206 11.4543C52.3201 12.0892 52.4784 12.4466 52.6461 12.4478Z" fill="#3AB430"/>
<path d="M71.2444 16.7947C71.2014 16.7697 71.1295 16.7938 71.0287 16.867C67.3455 19.5794 63.6449 23.4696 60.8292 26.8657C58.9652 29.1165 57.4789 31.5985 56.3701 34.3117C56.3569 34.3438 56.3347 34.3714 56.3061 34.3913C56.2776 34.4112 56.2439 34.4226 56.209 34.424L54.7069 34.4914C54.6194 34.4955 54.5337 34.4649 54.4684 34.4061C54.403 34.3473 54.3632 34.265 54.3574 34.177C54.1344 30.8383 53.9832 26.8682 55.2423 23.7691C59.4015 13.5308 69.2664 8.79221 79.8056 8.41791C80.0633 8.40793 80.2815 8.44619 80.4599 8.5327C80.5409 8.57262 80.5872 8.6375 80.5987 8.72733C80.6632 9.22806 80.6838 9.59403 80.6607 9.82527C80.3517 13.0392 79.5957 16.3389 78.3927 19.7242C75.5844 27.6293 69.6655 32.9243 61.3497 34.3342C60.8837 34.4124 60.478 34.3991 60.1327 34.2943C59.9641 34.2427 59.9178 34.1371 59.9939 33.9774C61.895 29.9874 64.0563 26.4016 66.7804 22.8109C68.2708 20.8462 69.7696 18.8949 71.2766 16.9569C71.3278 16.8903 71.3171 16.8363 71.2444 16.7947Z" fill="#3AB430"/>
<path d="M34.1739 16.9843C34.3937 17.3403 34.6383 17.7005 34.9076 18.0648C36.7451 20.5385 38.576 23.0163 40.4003 25.4983C42.3336 28.1317 43.9935 30.9564 45.3798 33.9724C45.4856 34.2003 45.417 34.3433 45.1741 34.4016C44.9031 34.4665 44.5685 34.464 44.1703 34.3941C42.7376 34.1412 41.3388 33.7761 39.9739 33.2986C29.8909 29.7603 25.2162 19.2251 24.7626 9.16651C24.7411 8.70238 24.9319 8.47115 25.3351 8.47281C30.4015 8.48279 35.1538 9.68719 39.5922 12.086C45.07 15.048 50.2553 20.7697 50.9196 27.255C51.0237 28.2797 51.0419 30.622 50.9741 34.2818C50.9725 34.3633 50.932 34.4116 50.8527 34.4265C50.3024 34.533 49.7563 34.5122 49.2143 34.3641C49.1739 34.3524 49.1366 34.332 49.1049 34.3045C49.0733 34.2769 49.048 34.2428 49.0309 34.2044C47.7833 31.2899 46.425 28.9626 44.956 27.2226C41.7371 23.4147 38.1786 19.9695 34.2805 16.887C34.2674 16.8761 34.2509 16.8703 34.234 16.8707C34.2172 16.8712 34.201 16.8778 34.1883 16.8894C34.1756 16.901 34.1672 16.9168 34.1646 16.9342C34.1619 16.9515 34.1653 16.9693 34.1739 16.9843Z" fill="#3AB430"/>
<path d="M25.0436 39.1181C24.616 39.4844 24.1164 39.7571 23.5735 39.9207C23.0305 40.0842 22.4548 40.1353 21.8792 40.0711C21.3035 40.0069 20.7393 39.8286 20.2186 39.5464C19.6979 39.2642 19.231 38.8837 18.8445 38.4265C18.458 37.9694 18.1595 37.4445 17.9661 36.8819C17.7726 36.3194 17.688 35.7301 17.7171 35.1478C17.7462 34.5654 17.8883 34.0015 18.1355 33.4881C18.3826 32.9746 18.7299 32.5218 19.1575 32.1554C19.5851 31.7891 20.0846 31.5164 20.6276 31.3528C21.1705 31.1893 21.7462 31.1382 22.3219 31.2024C22.8975 31.2666 23.4618 31.4449 23.9825 31.7271C24.5032 32.0093 24.9701 32.3898 25.3566 32.847C25.7431 33.3041 26.0416 33.829 26.235 34.3916C26.4284 34.9541 26.513 35.5434 26.4839 36.1257C26.4549 36.7081 26.3127 37.272 26.0656 37.7855C25.8184 38.2989 25.4712 38.7517 25.0436 39.1181ZM21.2702 32.2132C21.2131 32.1888 21.1501 32.1815 21.089 32.1923C21.0279 32.203 20.9711 32.2313 20.9256 32.2738C20.88 32.3162 20.8476 32.3709 20.8323 32.4315C20.8169 32.492 20.8192 32.5557 20.8389 32.6149C21.0141 33.1406 21.3396 33.6397 21.8155 34.1121C22.764 35.0537 23.6497 36.0019 24.4726 36.9568C24.5149 37.0052 24.5683 37.0425 24.6281 37.0654C24.6879 37.0883 24.7523 37.0962 24.8157 37.0883C24.8791 37.0804 24.9394 37.057 24.9915 37.0202C25.0436 36.9833 25.0859 36.9341 25.1145 36.8769C25.4863 36.1358 24.7105 35.2175 24.2198 34.7459C23.3473 33.9125 22.3806 32.6848 21.2702 32.2132ZM23.548 38.2144L19.6392 34.0098C19.6201 33.9891 19.5971 33.9724 19.5715 33.9606C19.5459 33.9489 19.5182 33.9424 19.4901 33.9414C19.462 33.9405 19.434 33.9452 19.4077 33.9552C19.3814 33.9652 19.3573 33.9804 19.3369 33.9998L19.265 34.0672C19.1698 34.1568 19.1002 34.272 19.0601 34.4062C19.0201 34.5405 19.0104 34.6912 19.0315 34.8497C19.0527 35.0082 19.1044 35.1714 19.1835 35.33C19.2627 35.4886 19.3679 35.6395 19.493 35.774L21.7882 38.2444C22.0406 38.5159 22.359 38.7044 22.6732 38.7685C22.9874 38.8326 23.2718 38.767 23.4638 38.5862L23.5357 38.5163C23.5769 38.4778 23.6013 38.4245 23.6036 38.3679C23.6059 38.3114 23.586 38.2562 23.548 38.2144Z" fill="#32A22D"/>
<path d="M80.5672 39.327C80.1226 38.9723 79.7564 38.5269 79.4894 38.0165C79.2225 37.506 79.06 36.9404 79.0114 36.352C78.9628 35.7635 79.0289 35.1638 79.206 34.5869C79.3831 34.0101 79.6677 33.4675 80.0436 32.9901C80.8026 32.0259 81.8873 31.3859 83.059 31.2107C84.2307 31.0356 85.3935 31.3398 86.2914 32.0563C86.7361 32.411 87.1023 32.8564 87.3692 33.3668C87.6362 33.8773 87.7986 34.4429 87.8472 35.0313C87.8959 35.6198 87.8297 36.2195 87.6526 36.7964C87.4756 37.3732 87.1909 37.9158 86.8151 38.3932C86.056 39.3574 84.9713 39.9974 83.7996 40.1726C82.6279 40.3477 81.4652 40.0435 80.5672 39.327ZM83.301 34.0493C83.4615 34.1873 83.6735 34.251 83.8906 34.2265C84.1076 34.202 84.3117 34.0913 84.4582 33.9187C84.6046 33.746 84.6813 33.5257 84.6714 33.3061C84.6615 33.0865 84.5658 32.8856 84.4053 32.7476C84.2449 32.6097 84.0328 32.5459 83.8158 32.5704C83.5988 32.5949 83.3946 32.7057 83.2482 32.8783C83.1017 33.0509 83.025 33.2712 83.0349 33.4908C83.0449 33.7104 83.1406 33.9113 83.301 34.0493ZM86.5474 34.8183C86.5522 34.7702 86.54 34.7221 86.5132 34.6827C86.4863 34.6433 86.4466 34.6153 86.4012 34.6037C86.1682 34.5455 85.936 34.6187 85.7047 34.8233C84.4984 35.8929 83.2864 37.0458 82.0686 38.2818C82.0233 38.3274 81.989 38.3828 81.9682 38.4438C81.9474 38.5048 81.9407 38.5698 81.9486 38.6338C81.9564 38.6977 81.9787 38.7591 82.0137 38.8131C82.0486 38.8671 82.0954 38.9124 82.1504 38.9455C82.6428 39.2433 83.1253 39.1793 83.5979 38.7534C84.6215 37.8326 86.3839 36.2506 86.5474 34.8183Z" fill="#32A22D"/>
<path d="M78.2143 59.7539C73.2595 51.3647 64.5298 45.4583 54.6995 45.0765C54.6096 45.0733 54.5243 45.0356 54.4612 44.9711C54.398 44.9066 54.3618 44.8202 54.3599 44.7297L54.2087 37.4209C54.2021 37.0915 54.3616 36.9451 54.6871 36.9817C55.4869 37.0765 56.3809 37.1655 57.369 37.2487C70.015 38.3317 81.5158 46.9929 86.7854 58.4938C86.7983 58.5225 86.8054 58.5534 86.8064 58.5849C86.8074 58.6163 86.8022 58.6475 86.7912 58.6768C86.7801 58.7061 86.7633 58.7328 86.7419 58.7553C86.7205 58.7779 86.6948 58.7959 86.6664 58.8082L79.7287 61.7976C79.6498 61.8312 79.5614 61.8343 79.4804 61.8062C79.3994 61.7781 79.3316 61.7208 79.29 61.6454C78.9645 61.0498 78.6059 60.4193 78.2143 59.7539Z" fill="#22464B"/>
<path d="M26.0614 61.7851C23.5827 61.0166 21.0645 59.9685 18.7321 58.8506C18.7038 58.8371 18.6785 58.8181 18.6576 58.7945C18.6367 58.771 18.6206 58.7436 18.6102 58.7137C18.5999 58.6838 18.5954 58.652 18.5972 58.6203C18.599 58.5886 18.6069 58.5574 18.6205 58.5287C22.8639 49.697 29.5232 43.4363 38.5983 39.7465C42.6302 38.1063 46.7282 37.1913 50.8923 37.0017C50.9083 37.001 50.9242 37.0036 50.939 37.0092C50.9539 37.0148 50.9675 37.0234 50.9789 37.0344C50.9903 37.0454 50.9992 37.0585 51.0052 37.0731C51.0112 37.0876 51.0141 37.1033 51.0138 37.119L50.9791 44.8519C50.9792 44.8935 50.9637 44.9336 50.9356 44.9642C50.9076 44.9947 50.8691 45.0135 50.8279 45.0166C39.9987 45.8026 31.036 52.026 26.1531 61.7477C26.1446 61.7638 26.1308 61.7764 26.114 61.7832C26.0972 61.7901 26.0786 61.7907 26.0614 61.7851Z" fill="#22464B"/>
<path d="M14.8927 44.2356C15.6469 44.2356 16.2584 43.62 16.2584 42.8607C16.2584 42.1013 15.6469 41.4858 14.8927 41.4858C14.1384 41.4858 13.5269 42.1013 13.5269 42.8607C13.5269 43.62 14.1384 44.2356 14.8927 44.2356Z" fill="#3AB430"/>
<path d="M90.8539 44.0754C91.5752 43.8268 91.972 43.0724 91.7401 42.3905C91.5082 41.7086 90.7354 41.3574 90.0141 41.606C89.2927 41.8547 88.8959 42.609 89.1278 43.2909C89.3597 43.9728 90.1325 44.324 90.8539 44.0754Z" fill="#3AB430"/>
<path d="M4.82694 43.2799C7.92523 44.2156 12.6916 47.9187 12.5008 51.5194C12.4041 53.306 10.9467 54.3466 9.24634 54.3516C8.126 54.3541 7.18412 53.9573 6.31164 53.1912C3.74543 50.9388 2.98118 48.0318 4.01891 44.4701C4.12631 44.1042 4.32543 43.7299 4.61626 43.3473C4.64032 43.3157 4.67342 43.2923 4.71109 43.2803C4.74876 43.2682 4.78919 43.2681 4.82694 43.2799Z" fill="#22464B"/>
<path d="M99.2335 48.4009C99.831 49.1571 100.096 50.1291 99.9697 51.1031C99.8436 52.0771 99.3369 52.9733 98.5611 53.5945C97.7852 54.2158 96.8039 54.5112 95.8328 54.4158C94.8617 54.3204 93.9806 53.842 93.3831 53.0858C92.7856 52.3297 92.5208 51.3577 92.6469 50.3837C92.773 49.4097 93.2797 48.5135 94.0555 47.8922C94.8314 47.2709 95.8127 46.9755 96.7838 47.0709C97.7549 47.1663 98.636 47.6447 99.2335 48.4009ZM97.6138 49.7082C97.816 49.6475 97.9834 49.4996 98.0791 49.297C98.1748 49.0945 98.1911 48.8538 98.1242 48.6281C98.0911 48.5163 98.0386 48.4115 97.9697 48.3197C97.9008 48.2279 97.8168 48.1509 97.7226 48.0931C97.6284 48.0353 97.5258 47.9978 97.4206 47.9828C97.3154 47.9678 97.2097 47.9756 97.1096 48.0056C96.9074 48.0663 96.74 48.2142 96.6443 48.4168C96.5486 48.6193 96.5324 48.86 96.5992 49.0858C96.6323 49.1975 96.6849 49.3023 96.7538 49.3941C96.8227 49.4859 96.9066 49.5629 97.0008 49.6207C97.095 49.6785 97.1977 49.716 97.3028 49.731C97.408 49.746 97.5137 49.7383 97.6138 49.7082Z" fill="#22464B"/>
<path d="M66.0392 66.9978C68.0321 63.0577 69.0979 59.3147 68.7459 54.913C68.7439 54.8946 68.7478 54.876 68.757 54.8599C68.7662 54.8439 68.7802 54.8312 68.797 54.8237C68.8139 54.8162 68.8326 54.8143 68.8506 54.8182C68.8686 54.8222 68.8849 54.8318 68.8971 54.8456C68.9682 54.9188 69.0219 55.0203 69.0582 55.1501C70.4942 60.1607 70.243 65.054 68.3047 69.83C67.5215 71.7613 66.6093 73.6628 65.4493 75.5218C63.0302 79.392 59.8798 83.1724 58.5017 87.4743C57.6689 90.0844 57.9093 92.3976 58.7397 95.1748C59.4808 97.6602 60.1178 99.7837 60.036 102.229C59.9195 105.615 58.5959 109.301 57.1657 112.447C56.9955 112.82 56.7477 113.033 56.4222 113.086C54.041 113.485 51.6574 113.53 49.2713 113.218C48.5748 113.129 48.431 112.794 48.1584 112.22C46.0887 107.839 44.837 103.739 45.5335 98.9328C45.764 97.3433 46.8001 94.9328 47.1075 93.3333C48.0568 88.3976 45.9822 84.3352 43.1169 80.4301C37.6539 72.989 33.4254 64.4601 36.3551 54.9979C36.3651 54.9646 36.3808 54.938 36.4022 54.918C36.4303 54.8931 36.4559 54.8739 36.4791 54.8606C36.532 54.8323 36.5567 54.849 36.5534 54.9105C36.1742 61.8874 39.0618 67.8462 43.392 73.0963C44.9758 75.0152 46.7654 76.8692 48.959 77.8649C53.5445 79.9435 57.3045 78.1444 60.5714 74.7283C62.7724 72.4259 64.595 69.8491 66.0392 66.9978Z" fill="#22464B"/>
<path d="M98.8112 62.2634C99.5127 61.9881 99.873 61.2267 99.6159 60.5629C99.3588 59.8991 98.5817 59.5842 97.8802 59.8595C97.1788 60.1348 96.8185 60.8962 97.0756 61.56C97.3327 62.2238 98.1098 62.5387 98.8112 62.2634Z" fill="#3AB430"/>
<path d="M6.96104 62.3615C7.67014 62.3615 8.24497 61.7828 8.24497 61.0689C8.24497 60.3551 7.67014 59.7764 6.96104 59.7764C6.25194 59.7764 5.67711 60.3551 5.67711 61.0689C5.67711 61.7828 6.25194 62.3615 6.96104 62.3615Z" fill="#3AB430"/>
<path d="M53.5724 74.8533C57.064 74.3468 59.4936 71.1352 58.9991 67.6801C58.5045 64.225 55.2731 61.8348 51.7815 62.3413C48.2898 62.8478 45.8603 66.0594 46.3548 69.5145C46.8494 72.9696 50.0808 75.3598 53.5724 74.8533Z" fill="#22464B"/>
<path d="M44.8172 112.517C35.6909 110.563 27.7816 105.61 22.2022 98.1018C14.7861 88.1206 13.1353 75.8212 16.4864 64.0633C16.4935 64.0385 16.5055 64.0153 16.5216 63.9952C16.5378 63.9751 16.5578 63.9585 16.5805 63.9464C16.6031 63.9343 16.628 63.9269 16.6536 63.9247C16.6792 63.9225 16.7049 63.9255 16.7293 63.9336L23.6075 66.2268C23.7063 66.2594 23.7885 66.3296 23.8366 66.4223C23.8847 66.5151 23.895 66.6231 23.8653 66.7233C21.4536 74.8006 22.4451 83.105 26.8174 90.2316C29.881 95.2306 34.0541 99.105 39.3369 101.855C40.3763 102.395 41.3777 102.905 42.341 103.384C42.419 103.423 42.4864 103.48 42.5374 103.552C42.5883 103.623 42.6214 103.706 42.6335 103.794C43.0334 106.735 43.8249 109.564 45.008 112.283C45.0208 112.311 45.0253 112.343 45.0211 112.374C45.0169 112.405 45.0042 112.435 44.9844 112.459C44.9647 112.484 44.9385 112.502 44.909 112.512C44.8795 112.522 44.8477 112.524 44.8172 112.517Z" fill="#22464B"/>
<path d="M88.1462 89.1861C83.4368 101.179 73.2496 109.98 60.5838 112.535C60.5501 112.542 60.5152 112.539 60.4829 112.527C60.4506 112.515 60.4222 112.495 60.4009 112.467C60.3796 112.44 60.3662 112.408 60.3621 112.373C60.3581 112.339 60.3636 112.304 60.378 112.273C61.6223 109.548 62.4304 106.697 62.8022 103.721C62.8118 103.641 62.8427 103.565 62.8915 103.501C62.9404 103.437 63.0054 103.387 63.0798 103.357C70.5851 100.283 76.3677 95.105 79.9592 87.7463C81.7265 84.1256 82.7601 80.4001 82.8468 76.3577C82.9146 73.1271 82.5098 69.9356 81.6323 66.7832C81.5728 66.5736 81.6455 66.4314 81.8504 66.3565L88.5874 63.9261C88.6195 63.9145 88.6537 63.9097 88.6878 63.9119C88.7219 63.9141 88.7552 63.9234 88.7856 63.939C88.816 63.9547 88.8429 63.9764 88.8647 64.003C88.8864 64.0295 88.9026 64.0602 88.9121 64.0933C91.2469 72.2404 91.3287 81.0788 88.1462 89.1861Z" fill="#22464B"/>
<path d="M104.475 73.3203C104.581 73.8818 104.569 74.4599 104.442 75.0215C104.314 75.5831 104.073 76.1172 103.732 76.5934C103.391 77.0695 102.956 77.4784 102.454 77.7966C101.951 78.1148 101.389 78.3361 100.802 78.448C99.6143 78.6738 98.3912 78.4399 97.4011 77.7977C96.4111 77.1554 95.7353 76.1575 95.5225 75.0234C95.4171 74.4618 95.4285 73.8837 95.5561 73.3221C95.6837 72.7605 95.9249 72.2264 96.2661 71.7503C96.6072 71.2741 97.0416 70.8652 97.5444 70.547C98.0472 70.2288 98.6085 70.0075 99.1964 69.8957C100.384 69.6698 101.607 69.9038 102.597 70.546C103.587 71.1882 104.263 72.1862 104.475 73.3203ZM97.2031 73.5006L102.822 73.3409C102.827 73.3409 102.832 73.3399 102.836 73.338C102.841 73.3361 102.845 73.3334 102.848 73.3299C102.852 73.3264 102.855 73.3223 102.856 73.3178C102.858 73.3132 102.859 73.3084 102.859 73.3035V73.2985C102.855 73.1211 102.801 72.9468 102.702 72.7856C102.602 72.6244 102.459 72.4794 102.28 72.3589C102.101 72.2384 101.889 72.1447 101.658 72.0833C101.426 72.0219 101.179 71.9939 100.931 72.0009L99.0174 72.0558C98.5164 72.0702 98.0399 72.2259 97.6927 72.4889C97.3455 72.7519 97.1561 73.1005 97.1659 73.4582V73.4632C97.1659 73.4731 97.1698 73.4826 97.1768 73.4896C97.1838 73.4966 97.1932 73.5006 97.2031 73.5006ZM102.949 74.9329L97.1411 74.8106C97.1356 74.8103 97.13 74.811 97.1248 74.8129C97.1196 74.8147 97.1147 74.8175 97.1106 74.8213C97.1064 74.825 97.1031 74.8295 97.1006 74.8345C97.0982 74.8395 97.0968 74.845 97.0965 74.8505V74.8555C97.0925 75.0459 97.1502 75.2358 97.2661 75.4142C97.3821 75.5926 97.5541 75.7561 97.7723 75.8954C97.9905 76.0346 98.2506 76.1469 98.5378 76.2258C98.8251 76.3047 99.1338 76.3487 99.4463 76.3552L100.581 76.3802C100.894 76.3868 101.204 76.3558 101.494 76.289C101.785 76.2222 102.049 76.1209 102.273 75.9909C102.497 75.8609 102.675 75.7048 102.798 75.5314C102.921 75.358 102.987 75.1707 102.991 74.9803V74.9753C102.991 74.9641 102.986 74.9533 102.978 74.9453C102.97 74.9374 102.96 74.9329 102.949 74.9329Z" fill="#32A22D"/>
<path d="M9.60973 73.9491C9.69713 75.0927 9.30499 76.2262 8.51958 77.1004C7.73417 77.9746 6.61983 78.5179 5.42169 78.6107C4.22355 78.7035 3.03977 78.3383 2.13076 77.5953C1.22175 76.8523 0.661974 75.7925 0.574573 74.649C0.487176 73.5055 0.879317 72.372 1.66473 71.4977C2.45014 70.6235 3.56448 70.0803 4.76262 69.9875C5.96076 69.8946 7.14454 70.2599 8.05355 71.0029C8.96256 71.7458 9.52233 72.8056 9.60973 73.9491ZM6.59173 72.2829C4.76497 72.1032 3.12908 71.7289 1.96908 73.3808C1.948 73.4105 1.93732 73.4464 1.9387 73.4828C1.94008 73.5193 1.95345 73.5543 1.9767 73.5823C1.99996 73.6102 2.03179 73.6297 2.0672 73.6375C2.10261 73.6453 2.13958 73.641 2.17233 73.6254C2.4615 73.4856 2.78868 73.4207 3.15386 73.4307C4.39318 73.4706 5.63167 73.528 6.86933 73.6029C7.22295 73.6245 7.48734 73.563 7.6625 73.4182C7.71411 73.3754 7.75549 73.3215 7.78359 73.2604C7.81169 73.1993 7.82579 73.1326 7.82484 73.0652C7.82388 72.9979 7.80791 72.9317 7.77809 72.8714C7.74828 72.8111 7.70538 72.7584 7.65258 72.7171C7.33036 72.4642 6.97674 72.3195 6.59173 72.2829ZM7.89797 75.0402L2.40532 75.0901C2.39978 75.0901 2.3943 75.0912 2.38919 75.0933C2.38408 75.0955 2.37943 75.0986 2.37552 75.1025C2.37161 75.1065 2.3685 75.1111 2.36639 75.1163C2.36427 75.1214 2.36318 75.1269 2.36318 75.1325V75.145C2.36616 75.5009 2.55164 75.8406 2.87884 76.0895C3.20605 76.3384 3.64821 76.4762 4.10814 76.4725L6.21497 76.4525C6.44294 76.4507 6.66842 76.4142 6.87852 76.3449C7.08862 76.2757 7.27922 76.1752 7.43943 76.0491C7.59964 75.9231 7.72632 75.7739 7.81223 75.6102C7.89814 75.4465 7.94159 75.2715 7.9401 75.0951V75.0826C7.9401 75.0714 7.93566 75.0606 7.92776 75.0526C7.91986 75.0447 7.90914 75.0402 7.89797 75.0402Z" fill="#32A22D"/>
<path d="M77.6021 74.8605C76.6329 77.795 76.1719 80.5922 73.0216 81.9996C71.6162 82.6259 69.9059 82.5561 68.8723 81.3209C68.3452 80.6887 68.1345 79.9426 68.2403 79.0826C68.8104 74.4987 73.9486 72.7869 77.9615 73.2336C77.9834 73.236 78.0047 73.2429 78.0238 73.2539C78.043 73.2649 78.0598 73.2797 78.073 73.2975C78.0863 73.3153 78.0957 73.3356 78.1009 73.3573C78.106 73.3789 78.1066 73.4013 78.1027 73.4232C78.0135 73.9223 77.7285 74.4762 77.6021 74.8605ZM74.888 77.2485C75.0119 77.0556 75.0119 76.8942 74.888 76.7644C74.8421 76.7154 74.7811 76.6835 74.7149 76.674C74.6487 76.6645 74.5812 76.6779 74.5236 76.712C73.6189 77.2535 69.839 79.6939 70.1637 80.8692C70.1769 80.9177 70.2043 80.961 70.2423 80.9935C70.2803 81.026 70.3272 81.0461 70.3768 81.0514C70.7189 81.0847 71.0494 80.9932 71.3683 80.7769C72.8604 79.7605 74.0337 78.5844 74.888 77.2485Z" fill="#3AB430"/>
<path d="M36.0577 80.7769C34.5383 82.8555 31.678 81.6153 30.3296 80.1107C28.8994 78.5137 28.4334 75.6765 28.4409 73.553C28.4415 73.5121 28.4579 73.4732 28.4866 73.4443C28.5153 73.4154 28.554 73.3989 28.5945 73.3983C32.7512 73.296 36.9327 74.7782 36.4642 79.8536C36.4378 80.1348 36.3023 80.4425 36.0577 80.7769Z" fill="#3AB430"/>
<path d="M5.13183 85.4625C5.13578 86.2232 5.72381 86.8368 6.44521 86.833C7.16662 86.8292 7.74823 86.2094 7.74427 85.4487C7.74031 84.688 7.15229 84.0744 6.43088 84.0782C5.70948 84.082 5.12787 84.7018 5.13183 85.4625Z" fill="#3AB430"/>
<path d="M98.6457 86.8455C99.3958 86.8455 100.004 86.2333 100.004 85.4781C100.004 84.7228 99.3958 84.1106 98.6457 84.1106C97.8955 84.1106 97.2874 84.7228 97.2874 85.4781C97.2874 86.2333 97.8955 86.8455 98.6457 86.8455Z" fill="#3AB430"/>
<path d="M38.0344 88.1952C38.5067 87.8899 38.666 87.2918 38.3901 86.8592C38.1143 86.4266 37.5078 86.3234 37.0355 86.6287C36.5632 86.9339 36.4039 87.5321 36.6798 87.9646C36.9556 88.3972 37.5621 88.5004 38.0344 88.1952Z" fill="#32A22D"/>
<path d="M67.1568 88.122C67.5572 88.514 68.1727 88.5306 68.5315 88.1591C68.8903 87.7876 68.8567 87.1687 68.4562 86.7767C68.0558 86.3847 67.4404 86.3681 67.0815 86.7396C66.7227 87.1111 66.7564 87.73 67.1568 88.122Z" fill="#32A22D"/>
<path d="M64.728 92.9765C65.3249 92.9765 65.8087 92.4894 65.8087 91.8885C65.8087 91.2877 65.3249 90.8006 64.728 90.8006C64.1312 90.8006 63.6474 91.2877 63.6474 91.8885C63.6474 92.4894 64.1312 92.9765 64.728 92.9765Z" fill="#3AB430"/>
<path d="M41.4893 92.6679C41.9355 92.2187 41.9606 91.5156 41.5453 91.0976C41.1301 90.6795 40.4317 90.7048 39.9855 91.154C39.5392 91.6033 39.5141 92.3063 39.9294 92.7244C40.3446 93.1424 41.043 93.1172 41.4893 92.6679Z" fill="#3AB430"/>
<path d="M14.2904 97.2493C14.5886 98.1573 14.507 99.1504 14.0634 100.01C13.6198 100.87 12.8506 101.526 11.9251 101.835C11.4667 101.987 10.9838 102.05 10.5039 102.019C10.024 101.988 9.55642 101.864 9.12792 101.654C8.69942 101.444 8.31838 101.152 8.00655 100.795C7.69472 100.438 7.45822 100.023 7.31053 99.5732C7.01227 98.6653 7.09391 97.6721 7.53749 96.8122C7.98107 95.9523 8.75026 95.2961 9.67584 94.9879C10.1341 94.8353 10.617 94.7728 11.097 94.8038C11.5769 94.8349 12.0445 94.959 12.473 95.169C12.9015 95.3789 13.2825 95.6708 13.5943 96.0277C13.9062 96.3847 14.1427 96.7998 14.2904 97.2493ZM12.3219 96.7843C12.3559 96.5633 12.2974 96.3371 12.1593 96.1555C12.0212 95.9739 11.8148 95.8518 11.5855 95.8161C11.3561 95.7803 11.1227 95.8339 10.9365 95.9649C10.7503 96.096 10.6266 96.2938 10.5926 96.5148C10.5586 96.7359 10.6171 96.9621 10.7553 97.1436C10.8934 97.3252 11.0998 97.4473 11.3291 97.4831C11.5584 97.5188 11.7919 97.4653 11.9781 97.3342C12.1642 97.2032 12.2879 97.0054 12.3219 96.7843Z" fill="#22464B"/>
<path d="M97.9863 98.4287C97.9863 98.9042 97.8933 99.375 97.7126 99.8143C97.5318 100.254 97.2669 100.653 96.933 100.989C96.599 101.325 96.2025 101.592 95.7662 101.774C95.3298 101.956 94.8621 102.049 94.3898 102.049C93.436 102.049 92.5212 101.668 91.8467 100.989C91.1723 100.31 90.7934 99.389 90.7934 98.4287C90.7934 97.4684 91.1723 96.5475 91.8467 95.8685C92.5212 95.1895 93.436 94.808 94.3898 94.808C94.8621 94.808 95.3298 94.9017 95.7662 95.0836C96.2025 95.2656 96.599 95.5323 96.933 95.8685C97.2669 96.2047 97.5318 96.6038 97.7126 97.0431C97.8933 97.4824 97.9863 97.9532 97.9863 98.4287ZM95.2375 95.9708C95.1629 95.9513 95.0847 95.9493 95.0091 95.9651C94.9336 95.9808 94.8626 96.0139 94.8018 96.0616C94.7409 96.1094 94.6918 96.1706 94.6582 96.2405C94.6246 96.3104 94.6074 96.3872 94.608 96.4649L94.6154 97.1137C94.6161 97.208 94.6429 97.3002 94.6928 97.38C94.7427 97.4598 94.8138 97.524 94.898 97.5653L95.1434 97.6851C95.2444 97.735 95.3592 97.7493 95.4692 97.7257C95.5793 97.7022 95.6784 97.6422 95.7506 97.5554L96.2315 96.9764C96.2861 96.9108 96.3233 96.8324 96.3396 96.7484C96.356 96.6644 96.3509 96.5777 96.3249 96.4962C96.2989 96.4147 96.2529 96.3412 96.191 96.2825C96.1292 96.2238 96.0535 96.1818 95.9712 96.1605L95.2375 95.9708Z" fill="#22464B"/>
<path d="M23.5753 108.071C29.928 113.752 37.8919 117.593 46.2994 118.848C49.4671 119.322 53.19 119.292 56.4445 119.187C57.7631 119.144 59.2056 118.972 60.7721 118.671C68.5286 117.178 75.3639 113.817 81.2779 108.587C82.4147 107.581 83.5227 106.537 84.6017 105.456C85.1222 104.936 85.5758 104.679 86.0616 105.421C86.5177 106.117 85.7791 106.713 85.3627 107.155C78.6629 114.256 69.834 118.721 60.269 120.385C45.4418 122.965 30.0247 117.625 19.6021 106.708C19.3418 106.434 18.9998 105.865 19.2104 105.47C19.5401 104.852 20.1052 104.804 20.5836 105.273C21.5602 106.228 22.5574 107.161 23.5753 108.071Z" fill="#3AB430"/>
</svg>
